<?xml version="1.0" standalone="no"?>
<!DOCTYPE svg PUBLIC "-//W3C//DTD SVG 20010904//EN"
 "http://www.w3.org/TR/2001/REC-SVG-20010904/DTD/svg10.dtd">
<svg version="1.0" xmlns="http://www.w3.org/2000/svg"
 width="700.000000pt" height="700.000000pt" viewBox="0 0 700.000000 700.000000"
 preserveAspectRatio="xMidYMid meet">
<metadata>
Created by potrace 1.14, written by Peter Selinger 2001-2017
</metadata>
<g transform="translate(0.000000,700.000000) scale(0.100000,-0.100000)"
fill="#000000" stroke="none">
<path d="M4420 6443 c-39 -13 -160 -130 -908 -877 -959 -958 -917 -909 -916
-1041 1 -42 8 -85 18 -108 23 -52 91 -124 141 -149 57 -30 158 -35 226 -13 51
16 96 59 921 883 960 958 912 904 913 1037 0 116 -61 211 -169 261 -61 28
-155 31 -226 7z"/>
<path d="M5240 5618 c-52 -19 -172 -137 -1946 -1912 -1823 -1822 -1893 -1893
-1913 -1949 -41 -113 -17 -230 65 -311 81 -82 198 -106 311 -65 56 20 127 90
1949 1913 1823 1822 1893 1893 1913 1949 88 242 -137 466 -379 375z"/>
<path d="M4010 2744 c-39 -14 -169 -140 -908 -878 -649 -647 -870 -873 -890
-911 -35 -67 -37 -177 -6 -246 26 -56 80 -112 137 -140 59 -31 159 -37 228
-14 51 16 96 59 917 879 959 958 917 909 916 1041 -1 42 -8 85 -18 108 -23 51
-91 124 -141 149 -53 28 -172 34 -235 12z"/>
</g>
</svg>
