<?xml version="1.0" encoding="UTF-8" standalone="no"?>
<!DOCTYPE svg PUBLIC "-//W3C//DTD SVG 1.1//EN" "http://www.w3.org/Graphics/SVG/1.1/DTD/svg11.dtd">
<svg width="100%" height="100%" viewBox="0 0 693 85" version="1.1" xmlns="http://www.w3.org/2000/svg" xmlns:xlink="http://www.w3.org/1999/xlink" xml:space="preserve" xmlns:serif="http://www.serif.com/" style="fill-rule:evenodd;clip-rule:evenodd;stroke-linejoin:round;stroke-miterlimit:2;">
    <g transform="matrix(1,0,0,1,-188.739,-1402.12)">
        <g transform="matrix(1,0,0,1,0,1172.16)">
            <g id="eddysantiagoAB" transform="matrix(1,0,0,1,-5.17398,106.751)">
                <g id="eddysantiago" transform="matrix(1,0,0,1,-134.142,-296.916)">
                    <path d="M949.704,467.471L949.704,482.983C949.704,491.991 944.433,496.783 934.524,496.783L922.717,496.783C912.808,496.783 907.537,491.991 907.537,482.983L907.537,433.916C907.537,424.908 912.808,420.116 922.717,420.116L934.524,420.116C944.433,420.116 949.704,424.908 949.704,433.916L949.704,454.718L952.46,454.718C953.276,454.718 953.938,455.38 953.938,456.196L953.938,465.992C953.938,466.808 953.276,467.471 952.46,467.471L949.704,467.471ZM936.105,454.718L936.105,436.312C936.105,433.82 934.629,432.479 931.888,432.479L925.774,432.479C923.033,432.479 921.558,433.82 921.558,436.312L921.558,480.587C921.558,483.175 923.033,484.42 925.774,484.42L931.888,484.42C934.629,484.42 936.105,483.175 936.105,480.587L936.105,467.471L934.286,467.471C933.47,467.471 932.807,466.808 932.807,465.992L932.807,456.196C932.807,455.38 933.47,454.718 934.286,454.718L936.105,454.718ZM634.908,467.471L622.57,467.471L616.511,495.441C616.3,496.304 615.773,496.783 614.824,496.783L603.544,496.783C602.385,496.783 601.858,496.208 602.174,495.154L619.673,421.458C619.884,420.5 620.516,420.116 621.465,420.116L636.118,420.116C637.067,420.116 637.699,420.5 637.91,421.458L645.808,454.718L650.906,454.718C651.722,454.718 652.385,455.38 652.385,456.196L652.385,465.992C652.385,466.808 651.722,467.471 650.906,467.471L648.836,467.471L655.409,495.154C655.62,496.208 655.198,496.783 653.933,496.783L642.759,496.783C641.811,496.783 641.283,496.304 641.073,495.441L634.908,467.471ZM625.142,454.718L632.336,454.718L628.739,436.887L625.142,454.718ZM824.649,467.471L812.31,467.471L806.251,495.441C806.04,496.304 805.513,496.783 804.564,496.783L793.285,496.783C792.125,496.783 791.598,496.208 791.914,495.154L809.413,421.458C809.624,420.5 810.257,420.116 811.206,420.116L825.858,420.116C826.807,420.116 827.44,420.5 827.651,421.458L835.548,454.718L839.955,454.718C840.771,454.718 841.433,455.38 841.433,456.196L841.433,465.992C841.433,466.808 840.771,467.471 839.955,467.471L838.576,467.471L845.15,495.154C845.361,496.208 844.939,496.783 843.674,496.783L832.5,496.783C831.551,496.783 831.024,496.304 830.813,495.441L824.649,467.471ZM822.076,454.718L818.479,436.887L814.883,454.718L822.076,454.718ZM373.773,423.45L373.773,433.866C373.773,434.908 373.315,435.637 371.94,435.637L343.294,435.637L343.294,456.47L365.18,456.47C366.326,456.47 367.013,457.095 367.013,458.241L367.013,468.554C367.013,469.7 366.326,470.325 365.18,470.325L343.294,470.325L343.294,491.366L371.94,491.366C373.315,491.366 373.773,491.887 373.773,493.033L373.773,503.45C373.773,504.491 373.315,505.116 371.94,505.116L329.773,505.116C328.742,505.116 328.055,504.491 328.055,503.45L328.055,423.45C328.055,422.408 328.742,421.783 329.773,421.783L371.94,421.783C373.315,421.783 373.773,422.408 373.773,423.45ZM384.773,495.25L384.773,421.65C384.773,420.691 385.301,420.116 386.46,420.116L411.76,420.116C421.669,420.116 426.94,425.004 426.94,434.012L426.94,482.983C426.94,491.991 421.669,496.783 411.76,496.783L386.46,496.783C385.301,496.783 384.773,496.304 384.773,495.25ZM399.11,484.133L408.808,484.133C411.549,484.133 413.025,482.887 413.025,480.3L413.025,436.695C413.025,434.108 411.549,432.766 408.808,432.766L399.11,432.766L399.11,484.133ZM437.482,495.25L437.482,421.65C437.482,420.691 438.009,420.116 439.168,420.116L464.468,420.116C474.378,420.116 479.648,425.004 479.648,434.012L479.648,482.983C479.648,491.991 474.378,496.783 464.468,496.783L439.168,496.783C438.009,496.783 437.482,496.304 437.482,495.25ZM451.818,484.133L461.517,484.133C464.258,484.133 465.733,482.887 465.733,480.3L465.733,436.695C465.733,434.108 464.258,432.766 461.517,432.766L451.818,432.766L451.818,484.133ZM526.013,420.116L536.554,420.116C538.136,420.116 538.873,420.979 538.241,422.32L518.95,464.966L518.95,494.866C518.95,496.112 518.212,496.783 516.841,496.783L506.721,496.783C505.351,496.783 504.613,496.112 504.613,494.866L504.613,464.966L485.322,422.32C484.689,420.979 485.427,420.116 487.008,420.116L497.55,420.116C498.815,420.116 499.553,420.595 499.975,421.65L511.781,449.154L523.588,421.65C524.01,420.595 524.748,420.116 526.013,420.116ZM562.789,421.783L575.623,421.783C586.393,421.783 592.123,426.991 592.123,436.783L592.123,447.825C592.123,448.866 591.55,449.491 590.289,449.491L578.373,449.491C577.227,449.491 576.539,448.866 576.539,447.825L576.539,439.7C576.539,436.991 575.05,435.533 571.956,435.533L566.456,435.533C563.591,435.533 561.873,436.991 561.873,439.7L561.873,454.075L589.143,462.2C591.091,462.929 592.123,464.075 592.123,466.054L592.123,490.116C592.123,499.908 586.393,505.116 575.623,505.116L562.789,505.116C552.133,505.116 546.289,499.908 546.289,490.116L546.289,479.179C546.289,478.033 546.977,477.512 548.123,477.512L560.039,477.512C561.3,477.512 561.873,478.033 561.873,479.179L561.873,487.2C561.873,490.012 563.591,491.366 566.456,491.366L571.956,491.366C574.935,491.366 576.539,490.012 576.539,487.2L576.539,473.345L549.383,465.22C547.321,464.595 546.289,463.345 546.289,461.366L546.289,436.783C546.289,426.991 552.133,421.783 562.789,421.783ZM696.301,420.116L707.265,420.116C708.319,420.116 708.951,420.691 708.951,421.65L708.951,495.25C708.951,496.208 708.319,496.783 707.265,496.783L696.828,496.783C695.88,496.783 695.247,496.4 694.931,495.537L678.802,454.616L678.275,454.616L678.275,495.25C678.275,496.208 677.748,496.783 676.588,496.783L665.625,496.783C664.571,496.783 663.938,496.208 663.938,495.25L663.938,421.65C663.938,420.691 664.571,420.116 665.625,420.116L676.061,420.116C677.01,420.116 677.643,420.5 677.959,421.362L693.982,462.091L694.615,462.091L694.615,421.65C694.615,420.691 695.142,420.116 696.301,420.116ZM719.071,420.116L757.865,420.116C759.024,420.116 759.551,420.691 759.551,421.65L759.551,431.233C759.551,432.191 759.024,432.766 757.865,432.766L745.636,432.766L745.636,495.25C745.636,496.304 745.109,496.783 743.95,496.783L732.986,496.783C731.932,496.783 731.3,496.304 731.3,495.25L731.3,432.766L719.071,432.766C718.017,432.766 717.385,432.191 717.385,431.233L717.385,421.65C717.385,420.691 718.017,420.116 719.071,420.116ZM769.671,420.116L780.635,420.116C781.689,420.116 782.321,420.691 782.321,421.65L782.321,495.25C782.321,496.208 781.689,496.783 780.635,496.783L769.671,496.783C768.512,496.783 767.985,496.208 767.985,495.25L767.985,421.65C767.985,420.691 768.512,420.116 769.671,420.116ZM852.721,482.983L852.721,433.916C852.721,424.908 857.991,420.116 867.901,420.116L881.816,420.116C891.619,420.116 896.996,424.908 896.996,433.916L896.996,443.883C896.996,444.841 896.363,445.416 895.309,445.416L884.767,445.416C883.608,445.416 883.081,444.841 883.081,443.883L883.081,436.6C883.081,434.108 881.605,432.766 878.864,432.766L871.274,432.766C868.428,432.766 867.057,434.108 867.057,436.6L867.057,480.3C867.057,482.887 868.533,484.133 871.274,484.133L878.864,484.133C881.605,484.133 883.081,482.887 883.081,480.3L883.081,467.458L877.599,467.458C876.439,467.458 875.912,466.883 875.912,465.925L875.912,456.341C875.912,455.287 876.439,454.808 877.599,454.808L895.309,454.808C896.363,454.808 896.996,455.287 896.996,456.341L896.996,482.983C896.996,491.991 891.619,496.783 881.816,496.783L867.901,496.783C857.991,496.783 852.721,491.991 852.721,482.983Z" style="fill:rgb(28,31,42);"/>
                </g>
                <g id="b" transform="matrix(0.514931,0,0,0.514931,657.137,-87.9495)">
                    <path d="M385.541,505.116C386.967,505.116 387.442,504.403 387.205,503.096L367.48,411.719C367.242,410.531 366.529,410.055 365.46,410.055L348.943,410.055C347.873,410.055 347.16,410.531 346.923,411.719L327.197,503.096C326.841,504.403 327.435,505.116 328.742,505.116L341.457,505.116C342.526,505.116 343.12,504.522 343.358,503.453L346.566,486.104L367.717,486.104L371.044,503.453C371.282,504.522 371.876,505.116 372.946,505.116L385.541,505.116ZM364.747,472.32L349.537,472.32L357.142,430.85L364.747,472.32Z" style="fill:rgb(28,31,42);fill-rule:nonzero;"/>
                </g>
                <g id="a" transform="matrix(0.514931,0,0,0.514931,656.661,-87.9495)">
                    <path d="M445.548,427.166C445.548,415.997 439.488,410.055 428.319,410.055L399.8,410.055C398.612,410.055 397.899,410.649 397.899,411.956L397.899,503.215C397.899,504.403 398.612,505.116 399.8,505.116L428.319,505.116C439.488,505.116 445.548,499.175 445.548,488.005L445.548,466.141C445.548,461.745 442.34,458.418 438.062,457.705L438.062,457.467C442.34,456.754 445.548,453.427 445.548,449.03L445.548,427.166ZM429.745,445.109C429.745,448.08 428.081,449.743 424.991,449.743L414.178,449.743L414.178,425.74L424.991,425.74C428.2,425.74 429.745,427.404 429.745,430.493L429.745,445.109ZM429.745,484.678C429.745,487.886 428.081,489.431 424.991,489.431L414.178,489.431L414.178,465.428L424.991,465.428C428.2,465.428 429.745,467.092 429.745,470.181L429.745,484.678Z" style="fill:rgb(28,31,42);fill-rule:nonzero;"/>
                </g>
            </g>
        </g>
    </g>
</svg>
