<?xml version="1.0" encoding="UTF-8" standalone="no"?>
<!DOCTYPE svg PUBLIC "-//W3C//DTD SVG 1.1//EN" "http://www.w3.org/Graphics/SVG/1.1/DTD/svg11.dtd">
<svg width="100%" height="100%" viewBox="0 0 4500 1001" version="1.1" xmlns="http://www.w3.org/2000/svg" xmlns:xlink="http://www.w3.org/1999/xlink" xml:space="preserve" xmlns:serif="http://www.serif.com/" style="fill-rule:evenodd;clip-rule:evenodd;stroke-linejoin:round;stroke-miterlimit:2;">
    <g transform="matrix(1,0,0,1,-1207.82,-1187.74)">
        <g id="Logo_with_name_and_subtitle" transform="matrix(4.5,0,0,1.00033,-4229.68,1187.74)">
            <rect x="1208.33" y="0" width="1000" height="1000" style="fill:none;"/>
            <g transform="matrix(0.222222,0,0,0.999667,1211.91,0.166568)">
                <path d="M718.183,227.272C733.245,212.21 757.664,212.21 772.726,227.272C772.727,227.272 772.728,227.273 772.728,227.274C787.79,242.336 787.79,266.755 772.728,281.817C679.62,374.926 374.926,679.62 281.817,772.728C266.755,787.79 242.336,787.79 227.274,772.728C227.273,772.728 227.272,772.727 227.272,772.726C212.21,757.664 212.21,733.245 227.272,718.183C320.38,625.074 625.074,320.38 718.183,227.272Z"/>
                <path d="M554.546,609.09C569.608,594.028 594.028,594.028 609.09,609.09C609.091,609.091 609.091,609.091 609.092,609.092C624.154,624.154 624.154,648.574 609.092,663.635C556.837,715.89 443.163,829.565 390.908,881.819C375.846,896.881 351.426,896.881 336.365,881.819C336.364,881.819 336.363,881.818 336.363,881.817C321.301,866.755 321.301,842.336 336.363,827.274C388.617,775.019 502.292,661.344 554.546,609.09Z" style="fill:rgb(255,140,105);"/>
                <path d="M609.092,118.181C624.154,103.119 648.574,103.119 663.635,118.181C663.636,118.181 663.637,118.182 663.637,118.183C678.699,133.245 678.699,157.664 663.637,172.726C611.383,224.981 497.708,338.656 445.454,390.91C430.392,405.972 405.972,405.972 390.91,390.91C390.909,390.909 390.909,390.909 390.908,390.908C375.846,375.846 375.846,351.426 390.908,336.365C443.163,284.11 556.837,170.435 609.092,118.181Z" style="fill:rgb(255,140,105);"/>
            </g>
            <g transform="matrix(0.222222,0,0,0.999667,1219.31,-92.4666)">
                <path d="M1184,216.902C1233.56,216.902 1273.3,229.659 1303.23,255.174C1333.16,280.689 1348.13,315.281 1348.13,358.951C1348.13,402.62 1332.92,436.722 1302.5,461.255C1272.57,485.298 1232.82,497.319 1183.26,497.319L1178.11,500.999L1058.88,500.999L1058.88,783.665L999.999,783.665L999.999,216.902L1184,216.902ZM1183.26,445.799C1218.1,445.799 1243.86,438.684 1260.54,424.455C1277.72,409.735 1286.31,387.9 1286.31,358.951C1286.31,330.001 1277.72,308.412 1260.54,294.182C1243.86,279.462 1218.1,272.102 1183.26,272.102L1058.88,272.102L1058.88,445.799L1183.26,445.799ZM1217.12,457.575L1377.57,783.665L1307.65,783.665L1167.81,489.959L1217.12,457.575Z" style="fill-rule:nonzero;stroke:black;stroke-width:20.83px;"/>
                <path d="M1693.32,538.935C1693.32,511.458 1685.96,490.359 1671.24,475.639C1656.52,460.428 1635.67,452.823 1608.68,452.823C1583.16,452.823 1561.58,458.465 1543.91,469.751C1526.25,480.546 1513.24,498.21 1504.9,522.743L1457.06,493.303C1466.88,465.826 1485.03,443.745 1511.53,427.063C1538.02,409.889 1570.9,401.303 1610.15,401.303C1636.65,401.303 1660.69,405.964 1682.28,415.287C1703.87,424.119 1720.8,437.857 1733.06,456.503C1745.82,474.658 1752.2,498.21 1752.2,527.159L1752.2,705.272C1752.2,722.936 1761.52,731.768 1780.17,731.768C1789.49,731.768 1798.57,730.542 1807.4,728.088L1804.46,774.457C1794.64,779.363 1781.89,781.817 1766.18,781.817C1751.95,781.817 1739.2,779.118 1727.91,773.721C1716.63,768.323 1707.8,760.227 1701.42,749.432C1695.04,738.147 1691.85,724.163 1691.85,707.48L1691.85,700.12L1706.57,702.328C1700.68,721.464 1690.62,737.166 1676.39,749.432C1662.16,761.208 1646.22,770.041 1628.55,775.929C1610.89,781.326 1593.47,784.025 1576.3,784.025C1554.71,784.025 1534.59,780.345 1515.94,772.985C1497.3,765.625 1482.33,754.584 1471.05,739.864C1460.25,724.654 1454.85,706.008 1454.85,683.928C1454.85,656.451 1463.93,633.88 1482.09,616.216C1500.73,598.061 1526.49,585.794 1559.37,579.415L1705.1,550.711L1705.1,599.288L1586.6,623.576C1562.56,628.482 1544.65,635.352 1532.87,644.184C1521.1,653.016 1515.21,665.283 1515.21,680.984C1515.21,696.195 1521.1,708.707 1532.87,718.52C1545.14,727.843 1562.31,732.504 1584.39,732.504C1598.62,732.504 1612.11,730.787 1624.87,727.352C1638.12,723.427 1649.9,717.784 1660.2,710.424C1670.5,702.573 1678.6,693.005 1684.49,681.72C1690.38,669.944 1693.32,656.205 1693.32,640.504L1693.32,538.935Z" style="fill-rule:nonzero;stroke:black;stroke-width:20.83px;"/>
                <path d="M1967.11,304.15L1967.11,675.096C1967.11,693.251 1972.26,706.744 1982.57,715.576C1992.87,724.408 2006.12,728.824 2022.31,728.824C2036.54,728.824 2048.81,726.371 2059.11,721.464C2069.41,716.558 2078.74,709.934 2087.08,701.592L2107.69,750.904C2096.4,761.208 2082.91,769.305 2067.21,775.193C2052,781.081 2034.33,784.025 2014.22,784.025C1995.57,784.025 1978.15,780.835 1961.96,774.457C1945.77,767.587 1932.76,757.038 1922.95,742.808C1913.63,728.088 1908.72,708.952 1908.23,685.4L1908.23,320.342L1967.11,304.15ZM2101.06,402.663L2101.06,453.447L1834.63,453.447L1834.63,402.663L2101.06,402.663Z" style="fill-rule:nonzero;stroke:black;stroke-width:20.83px;"/>
                <g transform="matrix(0.725775,0,0,0.725775,-618.378,-548.608)">
                    <g transform="matrix(220.138,0,0,220.138,2200.39,2081.05)">
                        <path d="M0.64,-0.169C0.626,-0.132 0.606,-0.099 0.58,-0.073C0.554,-0.046 0.524,-0.025 0.489,-0.011C0.454,0.003 0.415,0.01 0.374,0.01C0.311,0.01 0.257,-0.004 0.212,-0.032C0.166,-0.059 0.131,-0.098 0.106,-0.149C0.081,-0.2 0.068,-0.26 0.068,-0.33C0.068,-0.4 0.081,-0.46 0.106,-0.511C0.131,-0.562 0.166,-0.601 0.212,-0.629C0.257,-0.656 0.311,-0.67 0.372,-0.67C0.415,-0.67 0.453,-0.664 0.486,-0.653C0.519,-0.641 0.548,-0.624 0.572,-0.601C0.595,-0.578 0.614,-0.549 0.628,-0.516L0.549,-0.479C0.534,-0.517 0.513,-0.546 0.486,-0.566C0.458,-0.585 0.422,-0.595 0.378,-0.595C0.333,-0.595 0.294,-0.584 0.26,-0.564C0.226,-0.543 0.2,-0.512 0.181,-0.473C0.162,-0.434 0.152,-0.386 0.152,-0.33C0.152,-0.275 0.161,-0.227 0.179,-0.188C0.197,-0.148 0.223,-0.118 0.256,-0.097C0.289,-0.076 0.329,-0.065 0.374,-0.065C0.418,-0.065 0.456,-0.076 0.489,-0.099C0.522,-0.121 0.545,-0.154 0.56,-0.199L0.64,-0.169Z" style="fill:rgb(255,140,105);fill-rule:nonzero;"/>
                    </g>
                    <g transform="matrix(220.138,0,0,220.138,2351.4,2081.05)">
                        <path d="M0.3,-0.51C0.347,-0.51 0.389,-0.5 0.426,-0.479C0.462,-0.458 0.49,-0.429 0.511,-0.39C0.532,-0.351 0.542,-0.304 0.542,-0.25C0.542,-0.196 0.532,-0.15 0.511,-0.111C0.49,-0.072 0.462,-0.042 0.426,-0.021C0.389,-0 0.347,0.01 0.3,0.01C0.253,0.01 0.212,-0 0.175,-0.021C0.138,-0.042 0.11,-0.072 0.089,-0.111C0.068,-0.15 0.058,-0.196 0.058,-0.25C0.058,-0.304 0.068,-0.351 0.089,-0.39C0.11,-0.429 0.138,-0.458 0.175,-0.479C0.212,-0.5 0.253,-0.51 0.3,-0.51ZM0.3,-0.441C0.266,-0.441 0.237,-0.433 0.213,-0.418C0.189,-0.403 0.17,-0.381 0.158,-0.353C0.145,-0.324 0.138,-0.29 0.138,-0.25C0.138,-0.211 0.145,-0.177 0.158,-0.148C0.17,-0.119 0.189,-0.097 0.213,-0.082C0.237,-0.067 0.266,-0.059 0.3,-0.059C0.334,-0.059 0.363,-0.067 0.387,-0.082C0.411,-0.097 0.43,-0.119 0.443,-0.148C0.456,-0.177 0.462,-0.211 0.462,-0.25C0.462,-0.29 0.456,-0.324 0.443,-0.353C0.43,-0.381 0.411,-0.403 0.387,-0.418C0.363,-0.433 0.334,-0.441 0.3,-0.441Z" style="fill:rgb(255,140,105);fill-rule:nonzero;"/>
                    </g>
                    <g transform="matrix(220.138,0,0,220.138,2483.49,2081.05)">
                        <path d="M0.093,-0L0.093,-0.5L0.163,-0.5L0.17,-0.388L0.157,-0.399C0.168,-0.426 0.182,-0.447 0.2,-0.464C0.218,-0.48 0.239,-0.492 0.263,-0.499C0.286,-0.506 0.311,-0.51 0.336,-0.51C0.372,-0.51 0.405,-0.503 0.434,-0.49C0.463,-0.476 0.487,-0.455 0.505,-0.427C0.522,-0.399 0.531,-0.363 0.531,-0.32L0.531,-0L0.451,-0L0.451,-0.292C0.451,-0.347 0.439,-0.386 0.416,-0.408C0.392,-0.429 0.363,-0.44 0.328,-0.44C0.304,-0.44 0.28,-0.434 0.256,-0.423C0.232,-0.412 0.212,-0.393 0.197,-0.368C0.181,-0.343 0.173,-0.309 0.173,-0.266L0.173,-0L0.093,-0Z" style="fill:rgb(255,140,105);fill-rule:nonzero;"/>
                    </g>
                    <g transform="matrix(220.138,0,0,220.138,2616.89,2081.05)">
                        <path d="M0.424,-0.5L0.508,-0.5L0.3,-0L0.22,-0L0.012,-0.5L0.103,-0.5L0.261,-0.081L0.424,-0.5Z" style="fill:rgb(255,140,105);fill-rule:nonzero;"/>
                    </g>
                    <g transform="matrix(220.138,0,0,220.138,2731.36,2081.05)">
                        <path d="M0.133,-0.596C0.115,-0.596 0.1,-0.602 0.09,-0.613C0.079,-0.624 0.073,-0.638 0.073,-0.656C0.073,-0.674 0.079,-0.689 0.09,-0.7C0.1,-0.711 0.115,-0.716 0.133,-0.716C0.151,-0.716 0.166,-0.711 0.177,-0.7C0.188,-0.689 0.193,-0.674 0.193,-0.656C0.193,-0.638 0.188,-0.624 0.177,-0.613C0.166,-0.602 0.151,-0.596 0.133,-0.596ZM0.173,-0.5L0.173,-0L0.093,-0L0.093,-0.5L0.173,-0.5Z" style="fill:rgb(255,140,105);fill-rule:nonzero;"/>
                    </g>
                    <g transform="matrix(220.138,0,0,220.138,2789.92,2081.05)">
                        <path d="M0.302,0.01C0.255,0.01 0.213,-0 0.176,-0.021C0.138,-0.042 0.11,-0.072 0.089,-0.111C0.068,-0.15 0.058,-0.196 0.058,-0.25C0.058,-0.304 0.068,-0.351 0.089,-0.39C0.11,-0.429 0.138,-0.458 0.174,-0.479C0.21,-0.5 0.251,-0.51 0.297,-0.51C0.344,-0.51 0.384,-0.5 0.417,-0.48C0.45,-0.46 0.475,-0.433 0.492,-0.399C0.509,-0.364 0.518,-0.326 0.518,-0.283C0.518,-0.272 0.518,-0.261 0.517,-0.252C0.516,-0.243 0.515,-0.234 0.514,-0.227L0.11,-0.227L0.11,-0.298L0.479,-0.298L0.438,-0.29C0.438,-0.338 0.425,-0.375 0.399,-0.401C0.372,-0.427 0.338,-0.44 0.295,-0.44C0.262,-0.44 0.234,-0.432 0.211,-0.418C0.187,-0.403 0.169,-0.381 0.156,-0.353C0.142,-0.324 0.136,-0.29 0.136,-0.25C0.136,-0.211 0.143,-0.177 0.156,-0.148C0.169,-0.119 0.188,-0.097 0.213,-0.083C0.237,-0.068 0.266,-0.06 0.3,-0.06C0.337,-0.06 0.367,-0.067 0.39,-0.081C0.413,-0.095 0.431,-0.114 0.445,-0.138L0.508,-0.101C0.495,-0.078 0.479,-0.059 0.46,-0.042C0.44,-0.025 0.417,-0.013 0.391,-0.004C0.364,0.006 0.335,0.01 0.302,0.01Z" style="fill:rgb(255,140,105);fill-rule:nonzero;"/>
                    </g>
                    <g transform="matrix(220.138,0,0,220.138,2916.94,2081.05)">
                        <path d="M0.093,-0L0.093,-0.5L0.158,-0.5L0.169,-0.418C0.183,-0.449 0.204,-0.472 0.231,-0.487C0.258,-0.502 0.29,-0.51 0.329,-0.51C0.338,-0.51 0.347,-0.509 0.358,-0.508C0.368,-0.507 0.377,-0.504 0.384,-0.5L0.37,-0.427C0.363,-0.43 0.355,-0.432 0.346,-0.433C0.337,-0.434 0.325,-0.435 0.309,-0.435C0.288,-0.435 0.268,-0.429 0.247,-0.417C0.226,-0.405 0.208,-0.387 0.194,-0.363C0.18,-0.338 0.173,-0.307 0.173,-0.27L0.173,-0L0.093,-0Z" style="fill:rgb(255,140,105);fill-rule:nonzero;"/>
                    </g>
                    <g transform="matrix(220.138,0,0,220.138,3000.15,2081.05)">
                        <path d="M0.211,-0.642L0.211,-0.138C0.211,-0.113 0.218,-0.095 0.232,-0.083C0.246,-0.071 0.264,-0.065 0.286,-0.065C0.305,-0.065 0.322,-0.068 0.336,-0.075C0.35,-0.082 0.363,-0.091 0.374,-0.102L0.402,-0.035C0.387,-0.021 0.369,-0.01 0.348,-0.002C0.327,0.006 0.302,0.01 0.275,0.01C0.25,0.01 0.226,0.006 0.204,-0.004C0.182,-0.013 0.165,-0.027 0.152,-0.047C0.138,-0.066 0.132,-0.092 0.131,-0.124L0.131,-0.62L0.211,-0.642ZM0.393,-0.5L0.393,-0.431L0.031,-0.431L0.031,-0.5L0.393,-0.5Z" style="fill:rgb(255,140,105);fill-rule:nonzero;"/>
                    </g>
                    <g transform="matrix(220.138,0,0,220.138,3092.39,2081.05)">
                        <path d="M0.302,0.01C0.255,0.01 0.213,-0 0.176,-0.021C0.138,-0.042 0.11,-0.072 0.089,-0.111C0.068,-0.15 0.058,-0.196 0.058,-0.25C0.058,-0.304 0.068,-0.351 0.089,-0.39C0.11,-0.429 0.138,-0.458 0.174,-0.479C0.21,-0.5 0.251,-0.51 0.297,-0.51C0.344,-0.51 0.384,-0.5 0.417,-0.48C0.45,-0.46 0.475,-0.433 0.492,-0.399C0.509,-0.364 0.518,-0.326 0.518,-0.283C0.518,-0.272 0.518,-0.261 0.517,-0.252C0.516,-0.243 0.515,-0.234 0.514,-0.227L0.11,-0.227L0.11,-0.298L0.479,-0.298L0.438,-0.29C0.438,-0.338 0.425,-0.375 0.399,-0.401C0.372,-0.427 0.338,-0.44 0.295,-0.44C0.262,-0.44 0.234,-0.432 0.211,-0.418C0.187,-0.403 0.169,-0.381 0.156,-0.353C0.142,-0.324 0.136,-0.29 0.136,-0.25C0.136,-0.211 0.143,-0.177 0.156,-0.148C0.169,-0.119 0.188,-0.097 0.213,-0.083C0.237,-0.068 0.266,-0.06 0.3,-0.06C0.337,-0.06 0.367,-0.067 0.39,-0.081C0.413,-0.095 0.431,-0.114 0.445,-0.138L0.508,-0.101C0.495,-0.078 0.479,-0.059 0.46,-0.042C0.44,-0.025 0.417,-0.013 0.391,-0.004C0.364,0.006 0.335,0.01 0.302,0.01Z" style="fill:rgb(255,140,105);fill-rule:nonzero;"/>
                    </g>
                    <g transform="matrix(220.138,0,0,220.138,3290.07,2081.05)">
                        <path d="M0.211,-0.642L0.211,-0.138C0.211,-0.113 0.218,-0.095 0.232,-0.083C0.246,-0.071 0.264,-0.065 0.286,-0.065C0.305,-0.065 0.322,-0.068 0.336,-0.075C0.35,-0.082 0.363,-0.091 0.374,-0.102L0.402,-0.035C0.387,-0.021 0.369,-0.01 0.348,-0.002C0.327,0.006 0.302,0.01 0.275,0.01C0.25,0.01 0.226,0.006 0.204,-0.004C0.182,-0.013 0.165,-0.027 0.152,-0.047C0.138,-0.066 0.132,-0.092 0.131,-0.124L0.131,-0.62L0.211,-0.642ZM0.393,-0.5L0.393,-0.431L0.031,-0.431L0.031,-0.5L0.393,-0.5Z" style="fill:rgb(255,140,105);fill-rule:nonzero;"/>
                    </g>
                    <g transform="matrix(220.138,0,0,220.138,3382.31,2081.05)">
                        <path d="M0.385,-0.323C0.385,-0.36 0.375,-0.389 0.355,-0.41C0.335,-0.43 0.307,-0.44 0.27,-0.44C0.235,-0.44 0.206,-0.432 0.182,-0.418C0.158,-0.403 0.14,-0.378 0.129,-0.345L0.064,-0.385C0.077,-0.422 0.102,-0.452 0.138,-0.476C0.174,-0.499 0.219,-0.51 0.272,-0.51C0.308,-0.51 0.341,-0.504 0.37,-0.492C0.399,-0.479 0.423,-0.46 0.44,-0.436C0.456,-0.411 0.465,-0.378 0.465,-0.339L0.465,-0.097C0.465,-0.073 0.478,-0.061 0.503,-0.061C0.516,-0.061 0.528,-0.063 0.54,-0.066L0.536,-0.003C0.523,0.004 0.505,0.007 0.484,0.007C0.465,0.007 0.447,0.003 0.432,-0.004C0.417,-0.011 0.405,-0.023 0.396,-0.038C0.387,-0.053 0.383,-0.071 0.383,-0.094L0.383,-0.104L0.403,-0.101C0.395,-0.075 0.381,-0.054 0.362,-0.038C0.343,-0.021 0.321,-0.009 0.297,-0.002C0.273,0.006 0.249,0.01 0.226,0.01C0.197,0.01 0.169,0.005 0.144,-0.005C0.119,-0.015 0.098,-0.03 0.084,-0.051C0.069,-0.071 0.061,-0.096 0.061,-0.126C0.061,-0.163 0.074,-0.194 0.099,-0.219C0.124,-0.243 0.158,-0.259 0.203,-0.268L0.401,-0.307L0.401,-0.241L0.24,-0.208C0.207,-0.201 0.183,-0.192 0.167,-0.18C0.151,-0.168 0.143,-0.151 0.143,-0.13C0.143,-0.109 0.151,-0.093 0.168,-0.08C0.184,-0.067 0.207,-0.06 0.237,-0.06C0.256,-0.06 0.275,-0.063 0.293,-0.068C0.31,-0.073 0.326,-0.08 0.34,-0.091C0.354,-0.101 0.365,-0.114 0.373,-0.13C0.381,-0.145 0.385,-0.164 0.385,-0.185L0.385,-0.323Z" style="fill:rgb(255,140,105);fill-rule:nonzero;"/>
                    </g>
                    <g transform="matrix(220.138,0,0,220.138,3506.91,2081.05)">
                        <path d="M0.273,0.01C0.224,0.01 0.18,-0 0.139,-0.021C0.097,-0.042 0.066,-0.071 0.044,-0.109L0.112,-0.158C0.127,-0.127 0.148,-0.103 0.177,-0.086C0.205,-0.069 0.239,-0.06 0.279,-0.06C0.314,-0.06 0.342,-0.067 0.362,-0.081C0.382,-0.094 0.392,-0.112 0.392,-0.134C0.392,-0.148 0.388,-0.161 0.379,-0.173C0.37,-0.184 0.352,-0.193 0.327,-0.198L0.207,-0.223C0.158,-0.233 0.124,-0.25 0.103,-0.273C0.082,-0.296 0.071,-0.325 0.071,-0.36C0.071,-0.387 0.079,-0.412 0.095,-0.435C0.11,-0.458 0.133,-0.476 0.162,-0.49C0.191,-0.503 0.225,-0.51 0.264,-0.51C0.313,-0.51 0.355,-0.5 0.389,-0.481C0.423,-0.462 0.448,-0.434 0.465,-0.399L0.398,-0.355C0.387,-0.384 0.368,-0.406 0.343,-0.42C0.318,-0.433 0.291,-0.44 0.264,-0.44C0.24,-0.44 0.22,-0.437 0.203,-0.43C0.186,-0.423 0.172,-0.414 0.164,-0.403C0.155,-0.391 0.15,-0.378 0.15,-0.363C0.15,-0.348 0.155,-0.335 0.165,-0.323C0.175,-0.31 0.194,-0.301 0.221,-0.296L0.346,-0.27C0.393,-0.261 0.425,-0.245 0.444,-0.224C0.463,-0.203 0.472,-0.177 0.472,-0.146C0.472,-0.115 0.464,-0.087 0.447,-0.064C0.43,-0.04 0.407,-0.022 0.377,-0.009C0.347,0.004 0.312,0.01 0.273,0.01Z" style="fill:rgb(255,140,105);fill-rule:nonzero;"/>
                    </g>
                    <g transform="matrix(220.138,0,0,220.138,3622.92,2081.05)">
                        <path d="M0.385,-0.323C0.385,-0.36 0.375,-0.389 0.355,-0.41C0.335,-0.43 0.307,-0.44 0.27,-0.44C0.235,-0.44 0.206,-0.432 0.182,-0.418C0.158,-0.403 0.14,-0.378 0.129,-0.345L0.064,-0.385C0.077,-0.422 0.102,-0.452 0.138,-0.476C0.174,-0.499 0.219,-0.51 0.272,-0.51C0.308,-0.51 0.341,-0.504 0.37,-0.492C0.399,-0.479 0.423,-0.46 0.44,-0.436C0.456,-0.411 0.465,-0.378 0.465,-0.339L0.465,-0.097C0.465,-0.073 0.478,-0.061 0.503,-0.061C0.516,-0.061 0.528,-0.063 0.54,-0.066L0.536,-0.003C0.523,0.004 0.505,0.007 0.484,0.007C0.465,0.007 0.447,0.003 0.432,-0.004C0.417,-0.011 0.405,-0.023 0.396,-0.038C0.387,-0.053 0.383,-0.071 0.383,-0.094L0.383,-0.104L0.403,-0.101C0.395,-0.075 0.381,-0.054 0.362,-0.038C0.343,-0.021 0.321,-0.009 0.297,-0.002C0.273,0.006 0.249,0.01 0.226,0.01C0.197,0.01 0.169,0.005 0.144,-0.005C0.119,-0.015 0.098,-0.03 0.084,-0.051C0.069,-0.071 0.061,-0.096 0.061,-0.126C0.061,-0.163 0.074,-0.194 0.099,-0.219C0.124,-0.243 0.158,-0.259 0.203,-0.268L0.401,-0.307L0.401,-0.241L0.24,-0.208C0.207,-0.201 0.183,-0.192 0.167,-0.18C0.151,-0.168 0.143,-0.151 0.143,-0.13C0.143,-0.109 0.151,-0.093 0.168,-0.08C0.184,-0.067 0.207,-0.06 0.237,-0.06C0.256,-0.06 0.275,-0.063 0.293,-0.068C0.31,-0.073 0.326,-0.08 0.34,-0.091C0.354,-0.101 0.365,-0.114 0.373,-0.13C0.381,-0.145 0.385,-0.164 0.385,-0.185L0.385,-0.323Z" style="fill:rgb(255,140,105);fill-rule:nonzero;"/>
                    </g>
                    <g transform="matrix(220.138,0,0,220.138,3747.52,2081.05)">
                        <path d="M0.273,0.01C0.224,0.01 0.18,-0 0.139,-0.021C0.097,-0.042 0.066,-0.071 0.044,-0.109L0.112,-0.158C0.127,-0.127 0.148,-0.103 0.177,-0.086C0.205,-0.069 0.239,-0.06 0.279,-0.06C0.314,-0.06 0.342,-0.067 0.362,-0.081C0.382,-0.094 0.392,-0.112 0.392,-0.134C0.392,-0.148 0.388,-0.161 0.379,-0.173C0.37,-0.184 0.352,-0.193 0.327,-0.198L0.207,-0.223C0.158,-0.233 0.124,-0.25 0.103,-0.273C0.082,-0.296 0.071,-0.325 0.071,-0.36C0.071,-0.387 0.079,-0.412 0.095,-0.435C0.11,-0.458 0.133,-0.476 0.162,-0.49C0.191,-0.503 0.225,-0.51 0.264,-0.51C0.313,-0.51 0.355,-0.5 0.389,-0.481C0.423,-0.462 0.448,-0.434 0.465,-0.399L0.398,-0.355C0.387,-0.384 0.368,-0.406 0.343,-0.42C0.318,-0.433 0.291,-0.44 0.264,-0.44C0.24,-0.44 0.22,-0.437 0.203,-0.43C0.186,-0.423 0.172,-0.414 0.164,-0.403C0.155,-0.391 0.15,-0.378 0.15,-0.363C0.15,-0.348 0.155,-0.335 0.165,-0.323C0.175,-0.31 0.194,-0.301 0.221,-0.296L0.346,-0.27C0.393,-0.261 0.425,-0.245 0.444,-0.224C0.463,-0.203 0.472,-0.177 0.472,-0.146C0.472,-0.115 0.464,-0.087 0.447,-0.064C0.43,-0.04 0.407,-0.022 0.377,-0.009C0.347,0.004 0.312,0.01 0.273,0.01Z" style="fill:rgb(255,140,105);fill-rule:nonzero;"/>
                    </g>
                    <g transform="matrix(220.138,0,0,220.138,3938.6,2081.05)">
                        <path d="M0.288,0.01C0.247,0.01 0.209,-0 0.174,-0.021C0.139,-0.042 0.112,-0.072 0.091,-0.111C0.07,-0.15 0.06,-0.196 0.06,-0.25C0.06,-0.305 0.071,-0.352 0.093,-0.391C0.115,-0.43 0.144,-0.459 0.18,-0.48C0.216,-0.5 0.255,-0.51 0.296,-0.51C0.337,-0.51 0.373,-0.499 0.404,-0.478C0.434,-0.457 0.454,-0.428 0.464,-0.393L0.454,-0.386L0.454,-0.73L0.534,-0.73L0.534,-0L0.464,-0L0.457,-0.121L0.468,-0.127C0.463,-0.098 0.452,-0.073 0.435,-0.053C0.417,-0.032 0.395,-0.017 0.37,-0.006C0.344,0.005 0.317,0.01 0.288,0.01ZM0.296,-0.06C0.328,-0.06 0.356,-0.068 0.38,-0.084C0.403,-0.1 0.422,-0.123 0.435,-0.153C0.448,-0.182 0.454,-0.217 0.454,-0.257C0.454,-0.295 0.448,-0.328 0.435,-0.355C0.422,-0.382 0.404,-0.403 0.381,-0.418C0.358,-0.433 0.331,-0.44 0.3,-0.44C0.249,-0.44 0.21,-0.423 0.182,-0.388C0.154,-0.353 0.14,-0.307 0.14,-0.25C0.14,-0.193 0.154,-0.147 0.181,-0.112C0.208,-0.077 0.247,-0.06 0.296,-0.06Z" style="fill:rgb(255,140,105);fill-rule:nonzero;"/>
                    </g>
                    <g transform="matrix(220.138,0,0,220.138,4076.62,2081.05)">
                        <path d="M0.302,0.01C0.255,0.01 0.213,-0 0.176,-0.021C0.138,-0.042 0.11,-0.072 0.089,-0.111C0.068,-0.15 0.058,-0.196 0.058,-0.25C0.058,-0.304 0.068,-0.351 0.089,-0.39C0.11,-0.429 0.138,-0.458 0.174,-0.479C0.21,-0.5 0.251,-0.51 0.297,-0.51C0.344,-0.51 0.384,-0.5 0.417,-0.48C0.45,-0.46 0.475,-0.433 0.492,-0.399C0.509,-0.364 0.518,-0.326 0.518,-0.283C0.518,-0.272 0.518,-0.261 0.517,-0.252C0.516,-0.243 0.515,-0.234 0.514,-0.227L0.11,-0.227L0.11,-0.298L0.479,-0.298L0.438,-0.29C0.438,-0.338 0.425,-0.375 0.399,-0.401C0.372,-0.427 0.338,-0.44 0.295,-0.44C0.262,-0.44 0.234,-0.432 0.211,-0.418C0.187,-0.403 0.169,-0.381 0.156,-0.353C0.142,-0.324 0.136,-0.29 0.136,-0.25C0.136,-0.211 0.143,-0.177 0.156,-0.148C0.169,-0.119 0.188,-0.097 0.213,-0.083C0.237,-0.068 0.266,-0.06 0.3,-0.06C0.337,-0.06 0.367,-0.067 0.39,-0.081C0.413,-0.095 0.431,-0.114 0.445,-0.138L0.508,-0.101C0.495,-0.078 0.479,-0.059 0.46,-0.042C0.44,-0.025 0.417,-0.013 0.391,-0.004C0.364,0.006 0.335,0.01 0.302,0.01Z" style="fill:rgb(255,140,105);fill-rule:nonzero;"/>
                    </g>
                    <g transform="matrix(220.138,0,0,220.138,4278.71,2081.05)">
                        <path d="M0.133,-0.596C0.115,-0.596 0.1,-0.602 0.09,-0.613C0.079,-0.624 0.073,-0.638 0.073,-0.656C0.073,-0.674 0.079,-0.689 0.09,-0.7C0.1,-0.711 0.115,-0.716 0.133,-0.716C0.151,-0.716 0.166,-0.711 0.177,-0.7C0.188,-0.689 0.193,-0.674 0.193,-0.656C0.193,-0.638 0.188,-0.624 0.177,-0.613C0.166,-0.602 0.151,-0.596 0.133,-0.596ZM0.173,-0.5L0.173,-0L0.093,-0L0.093,-0.5L0.173,-0.5Z" style="fill:rgb(255,140,105);fill-rule:nonzero;"/>
                    </g>
                    <g transform="matrix(220.138,0,0,220.138,4337.27,2081.05)">
                        <path d="M0.093,-0L0.093,-0.5L0.163,-0.5L0.17,-0.388L0.157,-0.399C0.168,-0.426 0.182,-0.447 0.2,-0.464C0.218,-0.48 0.239,-0.492 0.263,-0.499C0.286,-0.506 0.311,-0.51 0.336,-0.51C0.372,-0.51 0.405,-0.503 0.434,-0.49C0.463,-0.476 0.487,-0.455 0.505,-0.427C0.522,-0.399 0.531,-0.363 0.531,-0.32L0.531,-0L0.451,-0L0.451,-0.292C0.451,-0.347 0.439,-0.386 0.416,-0.408C0.392,-0.429 0.363,-0.44 0.328,-0.44C0.304,-0.44 0.28,-0.434 0.256,-0.423C0.232,-0.412 0.212,-0.393 0.197,-0.368C0.181,-0.343 0.173,-0.309 0.173,-0.266L0.173,-0L0.093,-0Z" style="fill:rgb(255,140,105);fill-rule:nonzero;"/>
                    </g>
                    <g transform="matrix(220.138,0,0,220.138,4471.99,2081.05)">
                        <path d="M0.211,-0.642L0.211,-0.138C0.211,-0.113 0.218,-0.095 0.232,-0.083C0.246,-0.071 0.264,-0.065 0.286,-0.065C0.305,-0.065 0.322,-0.068 0.336,-0.075C0.35,-0.082 0.363,-0.091 0.374,-0.102L0.402,-0.035C0.387,-0.021 0.369,-0.01 0.348,-0.002C0.327,0.006 0.302,0.01 0.275,0.01C0.25,0.01 0.226,0.006 0.204,-0.004C0.182,-0.013 0.165,-0.027 0.152,-0.047C0.138,-0.066 0.132,-0.092 0.131,-0.124L0.131,-0.62L0.211,-0.642ZM0.393,-0.5L0.393,-0.431L0.031,-0.431L0.031,-0.5L0.393,-0.5Z" style="fill:rgb(255,140,105);fill-rule:nonzero;"/>
                    </g>
                    <g transform="matrix(220.138,0,0,220.138,4564.23,2081.05)">
                        <path d="M0.302,0.01C0.255,0.01 0.213,-0 0.176,-0.021C0.138,-0.042 0.11,-0.072 0.089,-0.111C0.068,-0.15 0.058,-0.196 0.058,-0.25C0.058,-0.304 0.068,-0.351 0.089,-0.39C0.11,-0.429 0.138,-0.458 0.174,-0.479C0.21,-0.5 0.251,-0.51 0.297,-0.51C0.344,-0.51 0.384,-0.5 0.417,-0.48C0.45,-0.46 0.475,-0.433 0.492,-0.399C0.509,-0.364 0.518,-0.326 0.518,-0.283C0.518,-0.272 0.518,-0.261 0.517,-0.252C0.516,-0.243 0.515,-0.234 0.514,-0.227L0.11,-0.227L0.11,-0.298L0.479,-0.298L0.438,-0.29C0.438,-0.338 0.425,-0.375 0.399,-0.401C0.372,-0.427 0.338,-0.44 0.295,-0.44C0.262,-0.44 0.234,-0.432 0.211,-0.418C0.187,-0.403 0.169,-0.381 0.156,-0.353C0.142,-0.324 0.136,-0.29 0.136,-0.25C0.136,-0.211 0.143,-0.177 0.156,-0.148C0.169,-0.119 0.188,-0.097 0.213,-0.083C0.237,-0.068 0.266,-0.06 0.3,-0.06C0.337,-0.06 0.367,-0.067 0.39,-0.081C0.413,-0.095 0.431,-0.114 0.445,-0.138L0.508,-0.101C0.495,-0.078 0.479,-0.059 0.46,-0.042C0.44,-0.025 0.417,-0.013 0.391,-0.004C0.364,0.006 0.335,0.01 0.302,0.01Z" style="fill:rgb(255,140,105);fill-rule:nonzero;"/>
                    </g>
                    <g transform="matrix(220.138,0,0,220.138,4691.25,2081.05)">
                        <path d="M0.093,-0L0.093,-0.5L0.158,-0.5L0.169,-0.418C0.183,-0.449 0.204,-0.472 0.231,-0.487C0.258,-0.502 0.29,-0.51 0.329,-0.51C0.338,-0.51 0.347,-0.509 0.358,-0.508C0.368,-0.507 0.377,-0.504 0.384,-0.5L0.37,-0.427C0.363,-0.43 0.355,-0.432 0.346,-0.433C0.337,-0.434 0.325,-0.435 0.309,-0.435C0.288,-0.435 0.268,-0.429 0.247,-0.417C0.226,-0.405 0.208,-0.387 0.194,-0.363C0.18,-0.338 0.173,-0.307 0.173,-0.27L0.173,-0L0.093,-0Z" style="fill:rgb(255,140,105);fill-rule:nonzero;"/>
                    </g>
                    <g transform="matrix(220.138,0,0,220.138,4777.54,2081.05)">
                        <path d="M0.302,0.01C0.255,0.01 0.213,-0 0.176,-0.021C0.138,-0.042 0.11,-0.072 0.089,-0.111C0.068,-0.15 0.058,-0.196 0.058,-0.25C0.058,-0.304 0.068,-0.351 0.089,-0.39C0.11,-0.429 0.138,-0.458 0.174,-0.479C0.21,-0.5 0.251,-0.51 0.297,-0.51C0.344,-0.51 0.384,-0.5 0.417,-0.48C0.45,-0.46 0.475,-0.433 0.492,-0.399C0.509,-0.364 0.518,-0.326 0.518,-0.283C0.518,-0.272 0.518,-0.261 0.517,-0.252C0.516,-0.243 0.515,-0.234 0.514,-0.227L0.11,-0.227L0.11,-0.298L0.479,-0.298L0.438,-0.29C0.438,-0.338 0.425,-0.375 0.399,-0.401C0.372,-0.427 0.338,-0.44 0.295,-0.44C0.262,-0.44 0.234,-0.432 0.211,-0.418C0.187,-0.403 0.169,-0.381 0.156,-0.353C0.142,-0.324 0.136,-0.29 0.136,-0.25C0.136,-0.211 0.143,-0.177 0.156,-0.148C0.169,-0.119 0.188,-0.097 0.213,-0.083C0.237,-0.068 0.266,-0.06 0.3,-0.06C0.337,-0.06 0.367,-0.067 0.39,-0.081C0.413,-0.095 0.431,-0.114 0.445,-0.138L0.508,-0.101C0.495,-0.078 0.479,-0.059 0.46,-0.042C0.44,-0.025 0.417,-0.013 0.391,-0.004C0.364,0.006 0.335,0.01 0.302,0.01ZM0.318,-0.75L0.405,-0.75L0.307,-0.583L0.242,-0.583L0.318,-0.75Z" style="fill:rgb(255,140,105);fill-rule:nonzero;"/>
                    </g>
                    <g transform="matrix(220.138,0,0,220.138,4904.56,2081.05)">
                        <path d="M0.273,0.01C0.224,0.01 0.18,-0 0.139,-0.021C0.097,-0.042 0.066,-0.071 0.044,-0.109L0.112,-0.158C0.127,-0.127 0.148,-0.103 0.177,-0.086C0.205,-0.069 0.239,-0.06 0.279,-0.06C0.314,-0.06 0.342,-0.067 0.362,-0.081C0.382,-0.094 0.392,-0.112 0.392,-0.134C0.392,-0.148 0.388,-0.161 0.379,-0.173C0.37,-0.184 0.352,-0.193 0.327,-0.198L0.207,-0.223C0.158,-0.233 0.124,-0.25 0.103,-0.273C0.082,-0.296 0.071,-0.325 0.071,-0.36C0.071,-0.387 0.079,-0.412 0.095,-0.435C0.11,-0.458 0.133,-0.476 0.162,-0.49C0.191,-0.503 0.225,-0.51 0.264,-0.51C0.313,-0.51 0.355,-0.5 0.389,-0.481C0.423,-0.462 0.448,-0.434 0.465,-0.399L0.398,-0.355C0.387,-0.384 0.368,-0.406 0.343,-0.42C0.318,-0.433 0.291,-0.44 0.264,-0.44C0.24,-0.44 0.22,-0.437 0.203,-0.43C0.186,-0.423 0.172,-0.414 0.164,-0.403C0.155,-0.391 0.15,-0.378 0.15,-0.363C0.15,-0.348 0.155,-0.335 0.165,-0.323C0.175,-0.31 0.194,-0.301 0.221,-0.296L0.346,-0.27C0.393,-0.261 0.425,-0.245 0.444,-0.224C0.463,-0.203 0.472,-0.177 0.472,-0.146C0.472,-0.115 0.464,-0.087 0.447,-0.064C0.43,-0.04 0.407,-0.022 0.377,-0.009C0.347,0.004 0.312,0.01 0.273,0.01Z" style="fill:rgb(255,140,105);fill-rule:nonzero;"/>
                    </g>
                    <g transform="matrix(220.138,0,0,220.138,5095.64,2081.05)">
                        <path d="M0.3,-0.51C0.335,-0.51 0.365,-0.505 0.392,-0.494C0.418,-0.483 0.441,-0.468 0.46,-0.448C0.479,-0.428 0.495,-0.404 0.507,-0.377L0.431,-0.341C0.42,-0.373 0.404,-0.398 0.383,-0.415C0.361,-0.432 0.333,-0.44 0.298,-0.44C0.265,-0.44 0.236,-0.432 0.212,-0.418C0.188,-0.403 0.17,-0.381 0.157,-0.353C0.144,-0.324 0.138,-0.29 0.138,-0.25C0.138,-0.211 0.144,-0.177 0.157,-0.148C0.17,-0.119 0.188,-0.097 0.212,-0.083C0.236,-0.068 0.265,-0.06 0.298,-0.06C0.324,-0.06 0.347,-0.064 0.366,-0.072C0.385,-0.08 0.4,-0.092 0.413,-0.107C0.425,-0.122 0.433,-0.141 0.438,-0.163L0.512,-0.137C0.501,-0.106 0.485,-0.08 0.466,-0.058C0.446,-0.036 0.422,-0.019 0.395,-0.008C0.367,0.004 0.335,0.01 0.3,0.01C0.253,0.01 0.212,-0 0.175,-0.021C0.138,-0.042 0.11,-0.072 0.089,-0.111C0.068,-0.15 0.058,-0.196 0.058,-0.25C0.058,-0.304 0.068,-0.351 0.089,-0.39C0.11,-0.429 0.138,-0.458 0.175,-0.479C0.212,-0.5 0.253,-0.51 0.3,-0.51Z" style="fill:rgb(255,140,105);fill-rule:nonzero;"/>
                    </g>
                    <g transform="matrix(220.138,0,0,220.138,5218.92,2081.05)">
                        <path d="M0.3,-0.51C0.347,-0.51 0.389,-0.5 0.426,-0.479C0.462,-0.458 0.49,-0.429 0.511,-0.39C0.532,-0.351 0.542,-0.304 0.542,-0.25C0.542,-0.196 0.532,-0.15 0.511,-0.111C0.49,-0.072 0.462,-0.042 0.426,-0.021C0.389,-0 0.347,0.01 0.3,0.01C0.253,0.01 0.212,-0 0.175,-0.021C0.138,-0.042 0.11,-0.072 0.089,-0.111C0.068,-0.15 0.058,-0.196 0.058,-0.25C0.058,-0.304 0.068,-0.351 0.089,-0.39C0.11,-0.429 0.138,-0.458 0.175,-0.479C0.212,-0.5 0.253,-0.51 0.3,-0.51ZM0.3,-0.441C0.266,-0.441 0.237,-0.433 0.213,-0.418C0.189,-0.403 0.17,-0.381 0.158,-0.353C0.145,-0.324 0.138,-0.29 0.138,-0.25C0.138,-0.211 0.145,-0.177 0.158,-0.148C0.17,-0.119 0.189,-0.097 0.213,-0.082C0.237,-0.067 0.266,-0.059 0.3,-0.059C0.334,-0.059 0.363,-0.067 0.387,-0.082C0.411,-0.097 0.43,-0.119 0.443,-0.148C0.456,-0.177 0.462,-0.211 0.462,-0.25C0.462,-0.29 0.456,-0.324 0.443,-0.353C0.43,-0.381 0.411,-0.403 0.387,-0.418C0.363,-0.433 0.334,-0.441 0.3,-0.441Z" style="fill:rgb(255,140,105);fill-rule:nonzero;"/>
                    </g>
                    <g transform="matrix(220.138,0,0,220.138,5351,2081.05)">
                        <path d="M0.093,-0L0.093,-0.5L0.163,-0.5L0.17,-0.388L0.157,-0.399C0.168,-0.426 0.182,-0.447 0.2,-0.464C0.218,-0.48 0.239,-0.492 0.263,-0.499C0.286,-0.506 0.311,-0.51 0.336,-0.51C0.372,-0.51 0.405,-0.503 0.434,-0.49C0.463,-0.476 0.487,-0.455 0.505,-0.427C0.522,-0.399 0.531,-0.363 0.531,-0.32L0.531,-0L0.451,-0L0.451,-0.292C0.451,-0.347 0.439,-0.386 0.416,-0.408C0.392,-0.429 0.363,-0.44 0.328,-0.44C0.304,-0.44 0.28,-0.434 0.256,-0.423C0.232,-0.412 0.212,-0.393 0.197,-0.368C0.181,-0.343 0.173,-0.309 0.173,-0.266L0.173,-0L0.093,-0Z" style="fill:rgb(255,140,105);fill-rule:nonzero;"/>
                    </g>
                    <g transform="matrix(220.138,0,0,220.138,5558.15,2081.05)">
                        <path d="M0.296,-0.735C0.313,-0.735 0.33,-0.733 0.345,-0.729C0.36,-0.725 0.372,-0.719 0.381,-0.712L0.36,-0.647C0.352,-0.652 0.343,-0.656 0.334,-0.659C0.325,-0.661 0.314,-0.662 0.303,-0.662C0.274,-0.662 0.252,-0.655 0.236,-0.642C0.22,-0.628 0.212,-0.606 0.212,-0.576L0.212,-0L0.132,-0L0.132,-0.584C0.132,-0.606 0.135,-0.626 0.142,-0.645C0.149,-0.664 0.159,-0.68 0.173,-0.693C0.186,-0.706 0.203,-0.717 0.224,-0.724C0.245,-0.731 0.269,-0.735 0.296,-0.735ZM0.379,-0.5L0.379,-0.431L0.032,-0.431L0.032,-0.5L0.379,-0.5Z" style="fill:rgb(255,140,105);fill-rule:nonzero;"/>
                    </g>
                    <g transform="matrix(220.138,0,0,220.138,5638.06,2081.05)">
                        <path d="M0.385,-0.323C0.385,-0.36 0.375,-0.389 0.355,-0.41C0.335,-0.43 0.307,-0.44 0.27,-0.44C0.235,-0.44 0.206,-0.432 0.182,-0.418C0.158,-0.403 0.14,-0.378 0.129,-0.345L0.064,-0.385C0.077,-0.422 0.102,-0.452 0.138,-0.476C0.174,-0.499 0.219,-0.51 0.272,-0.51C0.308,-0.51 0.341,-0.504 0.37,-0.492C0.399,-0.479 0.423,-0.46 0.44,-0.436C0.456,-0.411 0.465,-0.378 0.465,-0.339L0.465,-0.097C0.465,-0.073 0.478,-0.061 0.503,-0.061C0.516,-0.061 0.528,-0.063 0.54,-0.066L0.536,-0.003C0.523,0.004 0.505,0.007 0.484,0.007C0.465,0.007 0.447,0.003 0.432,-0.004C0.417,-0.011 0.405,-0.023 0.396,-0.038C0.387,-0.053 0.383,-0.071 0.383,-0.094L0.383,-0.104L0.403,-0.101C0.395,-0.075 0.381,-0.054 0.362,-0.038C0.343,-0.021 0.321,-0.009 0.297,-0.002C0.273,0.006 0.249,0.01 0.226,0.01C0.197,0.01 0.169,0.005 0.144,-0.005C0.119,-0.015 0.098,-0.03 0.084,-0.051C0.069,-0.071 0.061,-0.096 0.061,-0.126C0.061,-0.163 0.074,-0.194 0.099,-0.219C0.124,-0.243 0.158,-0.259 0.203,-0.268L0.401,-0.307L0.401,-0.241L0.24,-0.208C0.207,-0.201 0.183,-0.192 0.167,-0.18C0.151,-0.168 0.143,-0.151 0.143,-0.13C0.143,-0.109 0.151,-0.093 0.168,-0.08C0.184,-0.067 0.207,-0.06 0.237,-0.06C0.256,-0.06 0.275,-0.063 0.293,-0.068C0.31,-0.073 0.326,-0.08 0.34,-0.091C0.354,-0.101 0.365,-0.114 0.373,-0.13C0.381,-0.145 0.385,-0.164 0.385,-0.185L0.385,-0.323Z" style="fill:rgb(255,140,105);fill-rule:nonzero;"/>
                    </g>
                    <g transform="matrix(220.138,0,0,220.138,5762.66,2081.05)">
                        <path d="M0.3,-0.51C0.335,-0.51 0.365,-0.505 0.392,-0.494C0.418,-0.483 0.441,-0.468 0.46,-0.448C0.479,-0.428 0.495,-0.404 0.507,-0.377L0.431,-0.341C0.42,-0.373 0.404,-0.398 0.383,-0.415C0.361,-0.432 0.333,-0.44 0.298,-0.44C0.265,-0.44 0.236,-0.432 0.212,-0.418C0.188,-0.403 0.17,-0.381 0.157,-0.353C0.144,-0.324 0.138,-0.29 0.138,-0.25C0.138,-0.211 0.144,-0.177 0.157,-0.148C0.17,-0.119 0.188,-0.097 0.212,-0.083C0.236,-0.068 0.265,-0.06 0.298,-0.06C0.324,-0.06 0.347,-0.064 0.366,-0.072C0.385,-0.08 0.4,-0.092 0.413,-0.107C0.425,-0.122 0.433,-0.141 0.438,-0.163L0.512,-0.137C0.501,-0.106 0.485,-0.08 0.466,-0.058C0.446,-0.036 0.422,-0.019 0.395,-0.008C0.367,0.004 0.335,0.01 0.3,0.01C0.253,0.01 0.212,-0 0.175,-0.021C0.138,-0.042 0.11,-0.072 0.089,-0.111C0.068,-0.15 0.058,-0.196 0.058,-0.25C0.058,-0.304 0.068,-0.351 0.089,-0.39C0.11,-0.429 0.138,-0.458 0.175,-0.479C0.212,-0.5 0.253,-0.51 0.3,-0.51Z" style="fill:rgb(255,140,105);fill-rule:nonzero;"/>
                    </g>
                    <g transform="matrix(220.138,0,0,220.138,5885.94,2081.05)">
                        <path d="M0.133,-0.596C0.115,-0.596 0.1,-0.602 0.09,-0.613C0.079,-0.624 0.073,-0.638 0.073,-0.656C0.073,-0.674 0.079,-0.689 0.09,-0.7C0.1,-0.711 0.115,-0.716 0.133,-0.716C0.151,-0.716 0.166,-0.711 0.177,-0.7C0.188,-0.689 0.193,-0.674 0.193,-0.656C0.193,-0.638 0.188,-0.624 0.177,-0.613C0.166,-0.602 0.151,-0.596 0.133,-0.596ZM0.173,-0.5L0.173,-0L0.093,-0L0.093,-0.5L0.173,-0.5Z" style="fill:rgb(255,140,105);fill-rule:nonzero;"/>
                    </g>
                    <g transform="matrix(220.138,0,0,220.138,5944.49,2081.05)">
                        <path d="M0.169,-0.73L0.169,-0.127C0.169,-0.102 0.174,-0.084 0.183,-0.075C0.192,-0.065 0.207,-0.06 0.228,-0.06C0.241,-0.06 0.252,-0.061 0.261,-0.063C0.27,-0.065 0.281,-0.069 0.296,-0.074L0.283,-0.004C0.272,0.001 0.261,0.004 0.248,0.007C0.235,0.009 0.222,0.01 0.209,0.01C0.168,0.01 0.138,-0.001 0.119,-0.023C0.099,-0.045 0.089,-0.079 0.089,-0.124L0.089,-0.73L0.169,-0.73Z" style="fill:rgb(255,140,105);fill-rule:nonzero;"/>
                    </g>
                    <g transform="matrix(220.138,0,0,220.138,6011.86,2081.05)">
                        <path d="M0.133,-0.596C0.115,-0.596 0.1,-0.602 0.09,-0.613C0.079,-0.624 0.073,-0.638 0.073,-0.656C0.073,-0.674 0.079,-0.689 0.09,-0.7C0.1,-0.711 0.115,-0.716 0.133,-0.716C0.151,-0.716 0.166,-0.711 0.177,-0.7C0.188,-0.689 0.193,-0.674 0.193,-0.656C0.193,-0.638 0.188,-0.624 0.177,-0.613C0.166,-0.602 0.151,-0.596 0.133,-0.596ZM0.173,-0.5L0.173,-0L0.093,-0L0.093,-0.5L0.173,-0.5Z" style="fill:rgb(255,140,105);fill-rule:nonzero;"/>
                    </g>
                    <g transform="matrix(220.138,0,0,220.138,6070.41,2081.05)">
                        <path d="M0.288,0.01C0.247,0.01 0.209,-0 0.174,-0.021C0.139,-0.042 0.112,-0.072 0.091,-0.111C0.07,-0.15 0.06,-0.196 0.06,-0.25C0.06,-0.305 0.071,-0.352 0.093,-0.391C0.115,-0.43 0.144,-0.459 0.18,-0.48C0.216,-0.5 0.255,-0.51 0.296,-0.51C0.337,-0.51 0.373,-0.499 0.404,-0.478C0.434,-0.457 0.454,-0.428 0.464,-0.393L0.454,-0.386L0.454,-0.73L0.534,-0.73L0.534,-0L0.464,-0L0.457,-0.121L0.468,-0.127C0.463,-0.098 0.452,-0.073 0.435,-0.053C0.417,-0.032 0.395,-0.017 0.37,-0.006C0.344,0.005 0.317,0.01 0.288,0.01ZM0.296,-0.06C0.328,-0.06 0.356,-0.068 0.38,-0.084C0.403,-0.1 0.422,-0.123 0.435,-0.153C0.448,-0.182 0.454,-0.217 0.454,-0.257C0.454,-0.295 0.448,-0.328 0.435,-0.355C0.422,-0.382 0.404,-0.403 0.381,-0.418C0.358,-0.433 0.331,-0.44 0.3,-0.44C0.249,-0.44 0.21,-0.423 0.182,-0.388C0.154,-0.353 0.14,-0.307 0.14,-0.25C0.14,-0.193 0.154,-0.147 0.181,-0.112C0.208,-0.077 0.247,-0.06 0.296,-0.06Z" style="fill:rgb(255,140,105);fill-rule:nonzero;"/>
                    </g>
                    <g transform="matrix(220.138,0,0,220.138,6208.44,2081.05)">
                        <path d="M0.385,-0.323C0.385,-0.36 0.375,-0.389 0.355,-0.41C0.335,-0.43 0.307,-0.44 0.27,-0.44C0.235,-0.44 0.206,-0.432 0.182,-0.418C0.158,-0.403 0.14,-0.378 0.129,-0.345L0.064,-0.385C0.077,-0.422 0.102,-0.452 0.138,-0.476C0.174,-0.499 0.219,-0.51 0.272,-0.51C0.308,-0.51 0.341,-0.504 0.37,-0.492C0.399,-0.479 0.423,-0.46 0.44,-0.436C0.456,-0.411 0.465,-0.378 0.465,-0.339L0.465,-0.097C0.465,-0.073 0.478,-0.061 0.503,-0.061C0.516,-0.061 0.528,-0.063 0.54,-0.066L0.536,-0.003C0.523,0.004 0.505,0.007 0.484,0.007C0.465,0.007 0.447,0.003 0.432,-0.004C0.417,-0.011 0.405,-0.023 0.396,-0.038C0.387,-0.053 0.383,-0.071 0.383,-0.094L0.383,-0.104L0.403,-0.101C0.395,-0.075 0.381,-0.054 0.362,-0.038C0.343,-0.021 0.321,-0.009 0.297,-0.002C0.273,0.006 0.249,0.01 0.226,0.01C0.197,0.01 0.169,0.005 0.144,-0.005C0.119,-0.015 0.098,-0.03 0.084,-0.051C0.069,-0.071 0.061,-0.096 0.061,-0.126C0.061,-0.163 0.074,-0.194 0.099,-0.219C0.124,-0.243 0.158,-0.259 0.203,-0.268L0.401,-0.307L0.401,-0.241L0.24,-0.208C0.207,-0.201 0.183,-0.192 0.167,-0.18C0.151,-0.168 0.143,-0.151 0.143,-0.13C0.143,-0.109 0.151,-0.093 0.168,-0.08C0.184,-0.067 0.207,-0.06 0.237,-0.06C0.256,-0.06 0.275,-0.063 0.293,-0.068C0.31,-0.073 0.326,-0.08 0.34,-0.091C0.354,-0.101 0.365,-0.114 0.373,-0.13C0.381,-0.145 0.385,-0.164 0.385,-0.185L0.385,-0.323Z" style="fill:rgb(255,140,105);fill-rule:nonzero;"/>
                    </g>
                    <g transform="matrix(220.138,0,0,220.138,6333.04,2081.05)">
                        <path d="M0.288,0.01C0.247,0.01 0.209,-0 0.174,-0.021C0.139,-0.042 0.112,-0.072 0.091,-0.111C0.07,-0.15 0.06,-0.196 0.06,-0.25C0.06,-0.305 0.071,-0.352 0.093,-0.391C0.115,-0.43 0.144,-0.459 0.18,-0.48C0.216,-0.5 0.255,-0.51 0.296,-0.51C0.337,-0.51 0.373,-0.499 0.404,-0.478C0.434,-0.457 0.454,-0.428 0.464,-0.393L0.454,-0.386L0.454,-0.73L0.534,-0.73L0.534,-0L0.464,-0L0.457,-0.121L0.468,-0.127C0.463,-0.098 0.452,-0.073 0.435,-0.053C0.417,-0.032 0.395,-0.017 0.37,-0.006C0.344,0.005 0.317,0.01 0.288,0.01ZM0.296,-0.06C0.328,-0.06 0.356,-0.068 0.38,-0.084C0.403,-0.1 0.422,-0.123 0.435,-0.153C0.448,-0.182 0.454,-0.217 0.454,-0.257C0.454,-0.295 0.448,-0.328 0.435,-0.355C0.422,-0.382 0.404,-0.403 0.381,-0.418C0.358,-0.433 0.331,-0.44 0.3,-0.44C0.249,-0.44 0.21,-0.423 0.182,-0.388C0.154,-0.353 0.14,-0.307 0.14,-0.25C0.14,-0.193 0.154,-0.147 0.181,-0.112C0.208,-0.077 0.247,-0.06 0.296,-0.06Z" style="fill:rgb(255,140,105);fill-rule:nonzero;"/>
                    </g>
                </g>
                <path d="M2342.47,784.025C2307.63,784.025 2276.47,776.419 2249,761.208C2222.01,745.998 2200.91,724.163 2185.7,695.704C2170.49,666.755 2162.89,632.408 2162.89,592.664C2162.89,552.919 2170.49,518.818 2185.7,490.359C2200.91,461.41 2221.77,439.329 2248.26,424.119C2274.76,408.908 2304.93,401.303 2338.79,401.303C2373.14,401.303 2402.33,408.663 2426.38,423.383C2450.91,438.103 2469.55,458.22 2482.31,483.735C2495.07,508.759 2501.45,536.973 2501.45,568.375C2501.45,576.717 2501.2,584.322 2500.71,591.192C2500.22,598.061 2499.49,604.194 2498.5,609.592L2201.16,609.592L2201.16,557.335L2472.74,557.335L2442.57,563.223C2442.57,527.895 2432.75,500.663 2413.13,481.527C2393.99,462.391 2368.72,452.823 2337.32,452.823C2313.28,452.823 2292.42,458.465 2274.76,469.751C2257.59,480.546 2244.09,496.492 2234.28,517.591C2224.95,538.199 2220.29,563.223 2220.29,592.664C2220.29,621.613 2225.2,646.637 2235.01,667.736C2244.83,688.835 2258.57,705.027 2276.23,716.312C2294.39,727.107 2315.97,732.504 2341,732.504C2367.99,732.504 2389.82,727.352 2406.5,717.048C2423.68,706.744 2437.41,692.76 2447.72,675.096L2494.09,702.328C2484.76,719.011 2472.74,733.486 2458.02,745.752C2443.79,758.019 2426.87,767.587 2407.24,774.457C2388.1,780.835 2366.51,784.025 2342.47,784.025Z" style="fill-rule:nonzero;stroke:black;stroke-width:20.83px;"/>
                <path d="M2765.67,401.303C2791.18,401.303 2813.51,405.228 2832.65,413.079C2852.27,420.929 2869.2,432.215 2883.43,446.935C2897.66,461.655 2909.19,479.074 2918.02,499.191L2862.09,525.687C2854.24,502.135 2842.21,484.226 2826.02,471.959C2810.32,459.201 2789.71,452.823 2764.2,452.823C2739.66,452.823 2718.57,458.465 2700.9,469.751C2683.24,480.546 2669.74,496.492 2660.42,517.591C2651.1,538.199 2646.44,563.223 2646.44,592.664C2646.44,621.613 2651.1,646.637 2660.42,667.736C2669.74,688.835 2683.24,705.027 2700.9,716.312C2718.57,727.107 2739.66,732.504 2764.2,732.504C2783.33,732.504 2799.77,729.56 2813.51,723.672C2827.74,717.784 2839.27,709.198 2848.1,697.912C2857.43,686.627 2863.8,672.888 2867.24,656.696L2921.7,675.832C2913.36,698.403 2901.83,717.784 2887.11,733.976C2872.88,750.168 2855.46,762.68 2834.85,771.513C2814.74,779.854 2791.68,784.025 2765.67,784.025C2731.32,784.025 2700.66,776.419 2673.67,761.208C2646.68,745.998 2625.58,724.163 2610.37,695.704C2595.16,666.755 2587.56,632.408 2587.56,592.664C2587.56,552.919 2595.16,518.818 2610.37,490.359C2625.58,461.41 2646.68,439.329 2673.67,424.119C2700.66,408.908 2731.32,401.303 2765.67,401.303Z" style="fill-rule:nonzero;stroke:black;stroke-width:20.83px;"/>
                <path d="M3177.84,401.303C3212.68,401.303 3243.34,408.908 3269.84,424.119C3296.83,439.329 3317.93,461.41 3333.14,490.359C3348.35,518.818 3355.95,552.919 3355.95,592.664C3355.95,632.408 3348.35,666.755 3333.14,695.704C3317.93,724.163 3296.83,745.998 3269.84,761.208C3243.34,776.419 3212.68,784.025 3177.84,784.025C3143.49,784.025 3112.83,776.419 3085.84,761.208C3058.85,745.998 3037.75,724.163 3022.54,695.704C3007.33,666.755 2999.73,632.408 2999.73,592.664C2999.73,552.919 3007.33,518.818 3022.54,490.359C3037.75,461.41 3058.85,439.329 3085.84,424.119C3112.83,408.908 3143.49,401.303 3177.84,401.303ZM3177.84,452.087C3152.82,452.087 3131.47,457.729 3113.81,469.015C3096.14,480.3 3082.41,496.492 3072.59,517.591C3063.27,538.199 3058.61,563.223 3058.61,592.664C3058.61,621.613 3063.27,646.637 3072.59,667.736C3082.41,688.835 3096.14,705.027 3113.81,716.312C3131.47,727.598 3152.82,733.24 3177.84,733.24C3202.86,733.24 3224.21,727.598 3241.87,716.312C3259.54,705.027 3273.03,688.835 3282.35,667.736C3292.17,646.637 3297.07,621.613 3297.07,592.664C3297.07,563.223 3292.17,538.199 3282.35,517.591C3273.03,496.492 3259.54,480.3 3241.87,469.015C3224.21,457.729 3202.86,452.087 3177.84,452.087Z" style="fill-rule:nonzero;stroke:black;stroke-width:20.83px;"/>
                <path d="M3467.09,783.665L3467.09,402.663L3518.61,402.663L3523.76,491.095L3514.19,482.999C3522.04,463.372 3532.59,447.671 3545.84,435.895C3559.09,423.628 3574.3,414.796 3591.47,409.399C3609.14,404.001 3627.29,401.303 3645.94,401.303C3672.43,401.303 3696.48,406.455 3718.07,416.759C3739.66,426.572 3756.83,441.783 3769.59,462.391C3782.84,482.999 3789.46,509.25 3789.46,541.143L3789.46,783.665L3730.58,783.665L3730.58,561.751C3730.58,521.026 3721.75,492.812 3704.08,477.111C3686.91,460.919 3665.57,452.823 3640.05,452.823C3622.39,452.823 3604.72,456.993 3587.06,465.335C3569.39,473.676 3554.67,487.17 3542.9,505.815C3531.61,524.461 3525.97,549.485 3525.97,580.887L3525.97,783.665L3467.09,783.665Z" style="fill-rule:nonzero;stroke:black;stroke-width:20.83px;"/>
                <path d="M4156.72,402.663L4218.55,402.663L4065.46,783.665L4006.58,783.665L3853.49,402.663L3920.46,402.663L4036.75,717.048L4156.72,402.663Z" style="fill-rule:nonzero;stroke:black;stroke-width:20.83px;"/>
            </g>
        </g>
    </g>
</svg>
