<?xml version="1.0" encoding="UTF-8" standalone="no"?><!DOCTYPE svg PUBLIC "-//W3C//DTD SVG 1.1//EN" "http://www.w3.org/Graphics/SVG/1.1/DTD/svg11.dtd"><svg width="100%" height="100%" viewBox="0 0 4500 1001" version="1.1" xmlns="http://www.w3.org/2000/svg" xmlns:xlink="http://www.w3.org/1999/xlink" xml:space="preserve" xmlns:serif="http://www.serif.com/" style="fill-rule:evenodd;clip-rule:evenodd;stroke-linejoin:round;stroke-miterlimit:2;"><rect id="Logo_with_name" x="-0" y="0" width="4500" height="1000.33" style="fill:none;"/><g><path d="M718.183,227.272c15.062,-15.062 39.481,-15.062 54.543,-0c0.001,0 0.002,0.001 0.002,0.002c15.062,15.062 15.062,39.481 0,54.543c-93.108,93.109 -397.802,397.803 -490.911,490.911c-15.062,15.062 -39.481,15.062 -54.543,0c-0.001,-0 -0.002,-0.001 -0.002,-0.002c-15.062,-15.062 -15.062,-39.481 -0,-54.543c93.108,-93.109 397.802,-397.803 490.911,-490.911Z"/><path d="M554.546,609.09c15.062,-15.062 39.482,-15.062 54.544,-0c0.001,0.001 0.001,0.001 0.002,0.002c15.062,15.062 15.062,39.482 -0,54.543c-52.255,52.255 -165.929,165.93 -218.184,218.184c-15.062,15.062 -39.482,15.062 -54.543,0c-0.001,-0 -0.002,-0.001 -0.002,-0.002c-15.062,-15.062 -15.062,-39.481 -0,-54.543c52.254,-52.255 165.929,-165.93 218.183,-218.184Z"/><path d="M609.092,118.181c15.062,-15.062 39.482,-15.062 54.543,-0c0.001,0 0.002,0.001 0.002,0.002c15.062,15.062 15.062,39.481 0,54.543c-52.254,52.255 -165.929,165.93 -218.183,218.184c-15.062,15.062 -39.482,15.062 -54.544,0c-0.001,-0.001 -0.001,-0.001 -0.002,-0.002c-15.062,-15.062 -15.062,-39.482 0,-54.543c52.255,-52.255 165.929,-165.93 218.184,-218.184Z"/></g><g><path d="M1184,216.902c49.558,-0 89.302,12.757 119.233,38.272c29.93,25.515 44.896,60.107 44.896,103.777c-0,43.669 -15.211,77.771 -45.632,102.304c-29.931,24.043 -69.675,36.064 -119.233,36.064l-5.152,3.68l-119.233,0l0,282.666l-58.88,-0l-0,-566.763l184.001,-0Zm-0.736,228.897c34.838,0 60.598,-7.115 77.28,-21.344c17.174,-14.72 25.761,-36.555 25.761,-65.504c-0,-28.95 -8.587,-50.539 -25.761,-64.769c-16.682,-14.72 -42.442,-22.08 -77.28,-22.08l-124.385,0l0,173.697l124.385,0Zm33.856,11.776l160.449,326.09l-69.92,-0l-139.841,-293.706l49.312,-32.384Z" style="fill-rule:nonzero;stroke:#000;stroke-width:20.83px;"/><path d="M1693.32,538.935c-0,-27.477 -7.36,-48.576 -22.08,-63.296c-14.72,-15.211 -35.574,-22.816 -62.561,-22.816c-25.514,-0 -47.104,5.642 -64.768,16.928c-17.664,10.795 -30.667,28.459 -39.008,52.992l-47.84,-29.44c9.813,-27.477 27.968,-49.558 54.464,-66.24c26.496,-17.174 59.371,-25.76 98.624,-25.76c26.496,-0 50.539,4.661 72.129,13.984c21.589,8.832 38.517,22.57 50.784,41.216c12.757,18.155 19.136,41.707 19.136,70.656l0,178.113c0,17.664 9.323,26.496 27.968,26.496c9.323,0 18.4,-1.226 27.232,-3.68l-2.944,46.369c-9.813,4.906 -22.57,7.36 -38.272,7.36c-14.229,-0 -26.987,-2.699 -38.272,-8.096c-11.285,-5.398 -20.117,-13.494 -26.496,-24.289c-6.379,-11.285 -9.568,-25.269 -9.568,-41.952l-0,-7.36l14.72,2.208c-5.888,19.136 -15.947,34.838 -30.176,47.104c-14.23,11.776 -30.176,20.609 -47.841,26.497c-17.664,5.397 -35.082,8.096 -52.256,8.096c-21.589,-0 -41.707,-3.68 -60.352,-11.04c-18.646,-7.36 -33.611,-18.401 -44.896,-33.121c-10.795,-15.21 -16.193,-33.856 -16.193,-55.936c0,-27.477 9.078,-50.048 27.233,-67.712c18.645,-18.155 44.405,-30.422 77.28,-36.801l145.729,-28.704l-0,48.577l-118.497,24.288c-24.043,4.906 -41.952,11.776 -53.728,20.608c-11.776,8.832 -17.664,21.099 -17.664,36.8c-0,15.211 5.888,27.723 17.664,37.536c12.267,9.323 29.44,13.984 51.52,13.984c14.23,0 27.723,-1.717 40.48,-5.152c13.248,-3.925 25.025,-9.568 35.329,-16.928c10.304,-7.851 18.4,-17.419 24.288,-28.704c5.888,-11.776 8.832,-25.515 8.832,-41.216l-0,-101.569Z" style="fill-rule:nonzero;stroke:#000;stroke-width:20.83px;"/><path d="M1967.11,304.15l0,370.946c0,18.155 5.152,31.648 15.456,40.48c10.304,8.832 23.553,13.248 39.745,13.248c14.229,0 26.496,-2.453 36.8,-7.36c10.304,-4.906 19.627,-11.53 27.968,-19.872l20.608,49.312c-11.285,10.304 -24.779,18.401 -40.48,24.289c-15.211,5.888 -32.875,8.832 -52.992,8.832c-18.646,-0 -36.065,-3.19 -52.257,-9.568c-16.192,-6.87 -29.195,-17.419 -39.008,-31.649c-9.323,-14.72 -14.229,-33.856 -14.72,-57.408l-0,-365.058l58.88,-16.192Zm133.953,98.513l0,50.784l-266.433,-0l-0,-50.784l266.433,-0Z" style="fill-rule:nonzero;stroke:#000;stroke-width:20.83px;"/><path d="M2342.47,784.025c-34.837,-0 -65.995,-7.606 -93.472,-22.817c-26.987,-15.21 -48.086,-37.045 -63.297,-65.504c-15.21,-28.949 -22.816,-63.296 -22.816,-103.04c0,-39.745 7.606,-73.846 22.816,-102.305c15.211,-28.949 36.065,-51.03 62.561,-66.24c26.496,-15.211 56.672,-22.816 90.528,-22.816c34.347,-0 63.542,7.36 87.585,22.08c24.533,14.72 43.179,34.837 55.936,60.352c12.758,25.024 19.136,53.238 19.136,84.64c0,8.342 -0.245,15.947 -0.736,22.817c-0.49,6.869 -1.226,13.002 -2.208,18.4l-297.345,-0l-0,-52.257l271.585,0l-30.176,5.888c-0,-35.328 -9.813,-62.56 -29.44,-81.696c-19.136,-19.136 -44.406,-28.704 -75.809,-28.704c-24.042,-0 -44.896,5.642 -62.56,16.928c-17.173,10.795 -30.667,26.741 -40.48,47.84c-9.323,20.608 -13.984,45.632 -13.984,75.073c-0,28.949 4.906,53.973 14.72,75.072c9.813,21.099 23.552,37.291 41.216,48.576c18.155,10.795 39.744,16.192 64.768,16.192c26.987,0 48.822,-5.152 65.505,-15.456c17.173,-10.304 30.912,-24.288 41.216,-41.952l46.368,27.232c-9.323,16.683 -21.344,31.158 -36.064,43.424c-14.229,12.267 -31.158,21.835 -50.784,28.705c-19.136,6.378 -40.726,9.568 -64.769,9.568Z" style="fill-rule:nonzero;stroke:#000;stroke-width:20.83px;"/><path d="M2765.67,401.303c25.514,-0 47.84,3.925 66.976,11.776c19.627,7.85 36.555,19.136 50.784,33.856c14.23,14.72 25.76,32.139 34.593,52.256l-55.937,26.496c-7.851,-23.552 -19.872,-41.461 -36.064,-53.728c-15.701,-12.758 -36.31,-19.136 -61.824,-19.136c-24.534,-0 -45.633,5.642 -63.297,16.928c-17.664,10.795 -31.157,26.741 -40.48,47.84c-9.323,20.608 -13.984,45.632 -13.984,75.073c0,28.949 4.661,53.973 13.984,75.072c9.323,21.099 22.816,37.291 40.48,48.576c17.664,10.795 38.763,16.192 63.297,16.192c19.136,0 35.573,-2.944 49.312,-8.832c14.229,-5.888 25.76,-14.474 34.592,-25.76c9.323,-11.285 15.702,-25.024 19.136,-41.216l54.465,19.136c-8.342,22.571 -19.873,41.952 -34.593,58.144c-14.229,16.192 -31.648,28.704 -52.256,37.537c-20.117,8.341 -43.179,12.512 -69.184,12.512c-34.347,-0 -65.014,-7.606 -92.001,-22.817c-26.987,-15.21 -48.085,-37.045 -63.296,-65.504c-15.211,-28.949 -22.816,-63.296 -22.816,-103.04c-0,-39.745 7.605,-73.846 22.816,-102.305c15.211,-28.949 36.309,-51.03 63.296,-66.24c26.987,-15.211 57.654,-22.816 92.001,-22.816Z" style="fill-rule:nonzero;stroke:#000;stroke-width:20.83px;"/><path d="M3177.84,401.303c34.837,-0 65.504,7.605 92,22.816c26.987,15.21 48.086,37.291 63.297,66.24c15.211,28.459 22.816,62.56 22.816,102.305c-0,39.744 -7.605,74.091 -22.816,103.04c-15.211,28.459 -36.31,50.294 -63.297,65.504c-26.496,15.211 -57.163,22.817 -92,22.817c-34.347,-0 -65.014,-7.606 -92.001,-22.817c-26.986,-15.21 -48.085,-37.045 -63.296,-65.504c-15.211,-28.949 -22.816,-63.296 -22.816,-103.04c-0,-39.745 7.605,-73.846 22.816,-102.305c15.211,-28.949 36.31,-51.03 63.296,-66.24c26.987,-15.211 57.654,-22.816 92.001,-22.816Zm-0,50.784c-25.024,-0 -46.368,5.642 -64.032,16.928c-17.665,11.285 -31.403,27.477 -41.217,48.576c-9.322,20.608 -13.984,45.632 -13.984,75.073c0,28.949 4.662,53.973 13.984,75.072c9.814,21.099 23.552,37.291 41.217,48.576c17.664,11.286 39.008,16.928 64.032,16.928c25.024,0 46.368,-5.642 64.032,-16.928c17.664,-11.285 31.158,-27.477 40.481,-48.576c9.813,-21.099 14.72,-46.123 14.72,-75.072c-0,-29.441 -4.907,-54.465 -14.72,-75.073c-9.323,-21.099 -22.817,-37.291 -40.481,-48.576c-17.664,-11.286 -39.008,-16.928 -64.032,-16.928Z" style="fill-rule:nonzero;stroke:#000;stroke-width:20.83px;"/><path d="M3467.09,783.665l-0,-381.002l51.52,-0l5.152,88.432l-9.568,-8.096c7.85,-19.627 18.4,-35.328 31.648,-47.104c13.248,-12.267 28.459,-21.099 45.632,-26.496c17.664,-5.398 35.819,-8.096 54.465,-8.096c26.496,-0 50.538,5.152 72.128,15.456c21.589,9.813 38.763,25.024 51.52,45.632c13.248,20.608 19.872,46.859 19.872,78.752l0,242.522l-58.88,-0l-0,-221.914c-0,-40.725 -8.832,-68.939 -26.496,-84.64c-17.174,-16.192 -38.518,-24.288 -64.033,-24.288c-17.664,-0 -35.328,4.17 -52.992,12.512c-17.664,8.341 -32.384,21.835 -44.16,40.48c-11.285,18.646 -16.928,43.67 -16.928,75.072l-0,202.778l-58.88,-0Z" style="fill-rule:nonzero;stroke:#000;stroke-width:20.83px;"/><path d="M4156.72,402.663l61.825,-0l-153.089,381.002l-58.881,-0l-153.088,-381.002l66.976,-0l116.289,314.385l119.968,-314.385Z" style="fill-rule:nonzero;stroke:#000;stroke-width:20.83px;"/></g></svg>